<svg width="1200" height="680" viewBox="0 0 1200 680" fill="none" xmlns="http://www.w3.org/2000/svg">
  <rect width="1200" height="680" rx="32" fill="#050507"/>
  <rect x="28" y="28" width="1144" height="624" rx="24" fill="#0B0B10" stroke="#27272A"/>
  <rect x="52" y="52" width="250" height="576" rx="18" fill="#111116"/>
  <circle cx="84" cy="88" r="18" fill="#F8FAFC"/>
  <text x="112" y="94" fill="#F8FAFC" font-family="Inter, Arial" font-size="18" font-weight="700">GhostAPI.local</text>
  <text x="112" y="116" fill="#A1A1AA" font-family="Inter, Arial" font-size="13">Proxy Engine</text>
  <rect x="76" y="156" width="198" height="42" rx="12" fill="#27272A"/>
  <text x="96" y="182" fill="#F8FAFC" font-family="Inter, Arial" font-size="14" font-weight="600">Live Traffic</text>
  <text x="96" y="236" fill="#A1A1AA" font-family="Inter, Arial" font-size="14">Agent Setup</text>
  <text x="96" y="282" fill="#A1A1AA" font-family="Inter, Arial" font-size="14">Scenarios</text>
  <text x="96" y="328" fill="#A1A1AA" font-family="Inter, Arial" font-size="14">Safety Report</text>
  <rect x="334" y="52" width="402" height="576" rx="18" fill="#111116"/>
  <text x="362" y="94" fill="#F8FAFC" font-family="Inter, Arial" font-size="22" font-weight="800">Requests</text>
  <text x="362" y="120" fill="#A1A1AA" font-family="Inter, Arial" font-size="14">Captured locally on 127.0.0.1:8080</text>
  <rect x="362" y="154" width="346" height="82" rx="16" fill="#18181B" stroke="#3F3F46"/>
  <rect x="382" y="178" width="50" height="24" rx="8" fill="#312E81"/>
  <text x="392" y="195" fill="#C4B5FD" font-family="Inter, Arial" font-size="12" font-weight="700">POST</text>
  <text x="448" y="194" fill="#F8FAFC" font-family="Inter, Arial" font-size="15" font-weight="700">/v1/payment_intents</text>
  <text x="382" y="218" fill="#A1A1AA" font-family="Inter, Arial" font-size="13">Stripe shaped failure replay</text>
  <rect x="362" y="254" width="346" height="82" rx="16" fill="#0F172A" stroke="#1E3A8A"/>
  <rect x="382" y="278" width="50" height="24" rx="8" fill="#064E3B"/>
  <text x="394" y="295" fill="#A7F3D0" font-family="Inter, Arial" font-size="12" font-weight="700">GET</text>
  <text x="448" y="294" fill="#F8FAFC" font-family="Inter, Arial" font-size="15" font-weight="700">/v1/customers/cus_local</text>
  <text x="382" y="318" fill="#A1A1AA" font-family="Inter, Arial" font-size="13">Read from local state</text>
  <rect x="362" y="354" width="346" height="82" rx="16" fill="#18181B" stroke="#3F3F46"/>
  <rect x="382" y="378" width="50" height="24" rx="8" fill="#7F1D1D"/>
  <text x="392" y="395" fill="#FCA5A5" font-family="Inter, Arial" font-size="12" font-weight="700">POST</text>
  <text x="448" y="394" fill="#F8FAFC" font-family="Inter, Arial" font-size="15" font-weight="700">/v1/chat/completions</text>
  <text x="382" y="418" fill="#A1A1AA" font-family="Inter, Arial" font-size="13">OpenAI shaped local response</text>
  <rect x="768" y="52" width="380" height="576" rx="18" fill="#111116"/>
  <text x="796" y="94" fill="#F8FAFC" font-family="Inter, Arial" font-size="22" font-weight="800">Response</text>
  <text x="796" y="120" fill="#A1A1AA" font-family="Inter, Arial" font-size="14">Deterministic behavior controlled by MCP</text>
  <rect x="796" y="154" width="324" height="158" rx="16" fill="#050507" stroke="#27272A"/>
  <text x="820" y="188" fill="#FCA5A5" font-family="JetBrains Mono, Consolas" font-size="14">HTTP 402 card_declined</text>
  <text x="820" y="222" fill="#A1A1AA" font-family="JetBrains Mono, Consolas" font-size="13">{</text>
  <text x="844" y="248" fill="#F8FAFC" font-family="JetBrains Mono, Consolas" font-size="13">"error": "Your card was declined"</text>
  <text x="844" y="274" fill="#F8FAFC" font-family="JetBrains Mono, Consolas" font-size="13">"livemode": false</text>
  <text x="820" y="300" fill="#A1A1AA" font-family="JetBrains Mono, Consolas" font-size="13">}</text>
  <rect x="796" y="340" width="324" height="96" rx="16" fill="#0F172A" stroke="#1E3A8A"/>
  <text x="820" y="374" fill="#93C5FD" font-family="Inter, Arial" font-size="14" font-weight="700">MCP tools</text>
  <text x="820" y="404" fill="#E5E7EB" font-family="Inter, Arial" font-size="13">inspect_state / get_traffic_logs / set_api_behavior</text>
  <rect x="796" y="464" width="324" height="96" rx="16" fill="#052E16" stroke="#166534"/>
  <text x="820" y="498" fill="#86EFAC" font-family="Inter, Arial" font-size="14" font-weight="700">Safety-first</text>
  <text x="820" y="528" fill="#E5E7EB" font-family="Inter, Arial" font-size="13">No live providers. Secrets masked. Chaos opt-in.</text>
</svg>
